<svg version="1.1" id="Layer_1" xmlns="http://www.w3.org/2000/svg" xmlns:xlink="http://www.w3.org/1999/xlink" x="0px" y="0px"
	 width="100%" viewBox="0 0 5912 2456" enable-background="new 0 0 5912 2456" xml:space="preserve">
<path fill="#000000" opacity="1.000000" stroke="none" 
	d="
M3590.000000,2458.000000 
	C2393.333252,2458.000000 1197.666626,2458.000000 2.000000,2458.000000 
	C2.000000,1639.333374 2.000000,820.666687 2.000000,2.000000 
	C1972.666626,2.000000 3943.333252,2.000000 5914.000000,2.000000 
	C5914.000000,820.666687 5914.000000,1639.333374 5914.000000,2458.000000 
	C5139.666504,2458.000000 4365.333496,2458.000000 3590.000000,2458.000000 
z"/>
<path fill="#F9F5F4" opacity="1.000000" stroke="none" 
	d="
M1261.688599,1278.597412 
	C1265.636230,1326.639893 1260.514282,1372.651367 1243.502563,1416.925903 
	C1223.426270,1469.176025 1188.419189,1509.103516 1141.032593,1538.419434 
	C1099.100342,1564.360840 1053.092896,1579.238647 1004.890381,1587.905762 
	C969.718506,1594.229980 934.237732,1596.532715 898.486572,1596.437256 
	C791.508972,1596.151855 684.530090,1596.341553 577.551758,1596.324707 
	C565.462646,1596.322876 566.752808,1597.458740 566.752258,1585.771484 
	C566.736877,1251.505737 566.737122,917.240051 566.748352,582.974365 
	C566.748779,570.336853 565.706238,572.025940 578.189575,572.021790 
	C688.500610,571.985474 798.815063,571.471375 909.121338,572.195496 
	C977.559326,572.644653 1043.312134,586.499023 1104.765625,617.754150 
	C1146.533081,638.997070 1181.534546,668.058716 1207.181152,707.669312 
	C1229.328735,741.875671 1241.349976,779.674500 1245.852905,819.927246 
	C1249.196533,849.817932 1249.861694,879.724609 1244.418213,909.539429 
	C1228.729858,995.467957 1178.365479,1051.270996 1096.692871,1079.946899 
	C1091.682129,1081.706177 1086.552124,1083.125244 1081.078979,1084.826416 
	C1083.231201,1087.270752 1086.070068,1087.405640 1088.740234,1088.061523 
	C1119.389282,1095.591064 1148.280151,1107.203491 1174.137695,1125.583008 
	C1219.506714,1157.831177 1246.120483,1202.212402 1257.901733,1256.037598 
	C1259.465454,1263.181519 1260.390747,1270.465088 1261.688599,1278.597412 
z"/>
<path fill="#F9F5F4" opacity="1.000000" stroke="none" 
	d="
M2203.781738,1357.835449 
	C2183.714355,1408.285400 2156.352051,1453.217529 2118.980957,1491.800293 
	C2061.720947,1550.916626 1991.755127,1586.119385 1911.517212,1601.908691 
	C1865.805054,1610.903931 1819.652832,1613.339844 1773.262695,1609.724609 
	C1684.723145,1602.824707 1603.954956,1575.388306 1535.309082,1517.328247 
	C1483.578125,1473.574707 1446.954346,1418.916504 1422.455322,1356.128662 
	C1399.733887,1297.896729 1387.835083,1237.470947 1387.875366,1174.758301 
	C1388.001953,977.804504 1387.909668,780.850647 1387.947632,583.896790 
	C1387.950317,570.230713 1386.212524,572.028870 1399.323608,572.027161 
	C1675.592163,571.991943 1951.860840,572.000488 2228.129395,572.000671 
	C2230.128906,572.000671 2232.133301,572.091980 2234.126953,571.984680 
	C2237.717285,571.791443 2239.888672,572.875305 2239.562256,577.008179 
	C2239.353271,579.657410 2239.532471,582.337036 2239.532471,585.003052 
	C2239.532715,780.623840 2239.544189,976.244690 2239.525879,1171.865479 
	C2239.520020,1235.871094 2227.211182,1297.533203 2203.781738,1357.835449 
z"/>
<path fill="#F7F4F3" opacity="1.000000" stroke="none" 
	d="
M4586.907715,641.112305 
	C4602.735840,649.989502 4616.560059,660.323364 4629.246094,672.252075 
	C4632.323730,675.145752 4632.692871,677.089661 4629.469238,680.238159 
	C4616.121582,693.276184 4602.883301,706.433411 4589.883301,719.817139 
	C4586.238770,723.569214 4584.141113,722.300171 4580.974121,719.391113 
	C4562.639648,702.550293 4541.149902,691.637817 4516.736328,686.946472 
	C4447.893555,673.717468 4372.363281,709.679199 4357.888672,794.064392 
	C4352.398438,826.073242 4354.412109,857.847717 4365.834961,888.540405 
	C4378.732910,923.194641 4402.939453,946.597656 4438.117676,957.850037 
	C4474.500000,969.487549 4510.772949,969.856445 4546.305664,953.918274 
	C4561.374512,947.159180 4574.518555,937.681091 4586.263184,926.117859 
	C4590.019043,922.419983 4592.029785,918.587830 4591.862793,912.995483 
	C4591.435059,898.679016 4591.751465,884.341125 4591.707520,870.012024 
	C4591.682129,861.804810 4591.628418,861.718811 4583.759766,861.692993 
	C4566.431152,861.636108 4549.103027,861.712036 4531.774414,861.658325 
	C4524.047852,861.634338 4523.938965,861.552246 4523.907715,854.210693 
	C4523.837891,837.549011 4524.102539,820.882446 4523.762207,804.227478 
	C4523.653320,798.873352 4525.408691,797.538818 4530.521484,797.560913 
	C4571.175781,797.736511 4611.831055,797.630676 4652.486328,797.684204 
	C4659.389160,797.693298 4659.525391,797.854797 4659.528809,804.946228 
	C4659.563477,877.259033 4659.562988,949.571777 4659.531738,1021.884583 
	C4659.528320,1029.674194 4659.409180,1029.783447 4652.083496,1029.820557 
	C4637.088379,1029.896606 4622.091797,1029.789551 4607.096680,1029.868774 
	C4601.063965,1029.900635 4600.061035,1030.199097 4599.629395,1022.607422 
	C4599.086426,1013.053833 4597.864746,1003.538879 4596.980469,994.460083 
	C4594.830566,993.338928 4593.776367,994.197510 4592.823730,995.061096 
	C4566.049316,1019.338989 4534.189941,1031.330078 4498.487305,1033.350220 
	C4451.330078,1036.018188 4407.007812,1027.076294 4367.663086,999.441589 
	C4333.059082,975.136780 4310.348633,941.966309 4298.576660,901.834961 
	C4283.195801,849.401489 4281.447266,796.515625 4302.156738,745.018311 
	C4329.846191,676.164673 4380.742676,634.060791 4453.766602,619.930664 
	C4500.221191,610.941772 4544.491211,618.623962 4586.907715,641.112305 
z"/>
<path fill="#F7F3F2" opacity="1.000000" stroke="none" 
	d="
M4846.349121,740.000122 
	C4846.349121,755.327026 4846.299805,769.654236 4846.369629,783.980774 
	C4846.405762,791.504944 4846.500000,791.628418 4854.077148,791.634399 
	C4903.721680,791.673523 4953.366211,791.615906 5003.010742,791.679504 
	C5017.304688,791.697815 5015.208008,790.009949 5015.307617,803.706970 
	C5015.416016,818.699463 5015.371094,833.693481 5015.319336,848.686584 
	C5015.282715,859.270081 5016.779297,858.612915 5004.909668,858.614807 
	C4956.598145,858.622559 4908.286133,858.618042 4859.974609,858.618103 
	C4857.975586,858.618103 4855.975586,858.580505 4853.977539,858.625549 
	C4846.504395,858.794006 4846.385742,858.803955 4846.371094,866.501465 
	C4846.316895,894.822021 4846.330566,923.142700 4846.360840,951.463379 
	C4846.369629,960.061523 4846.431152,960.138123 4855.009766,960.141357 
	C4915.649414,960.164551 4976.288574,960.153748 5036.928223,960.153870 
	C5038.927246,960.153870 5040.954102,960.367615 5042.920410,960.114868 
	C5048.428711,959.406982 5049.587891,962.141357 5049.530762,967.072815 
	C5049.320312,985.062317 5049.503418,1003.056030 5049.418457,1021.047607 
	C5049.386230,1027.838989 5049.236816,1027.984131 5041.987305,1027.987061 
	C4956.691895,1028.021606 4871.396973,1028.022217 4786.101562,1027.986206 
	C4778.691406,1027.983154 4778.658691,1027.833130 4778.658203,1018.029968 
	C4778.648926,923.738831 4778.652344,829.447693 4778.652344,735.156555 
	C4778.652344,700.505432 4778.634277,665.854248 4778.665527,631.203125 
	C4778.673340,622.421570 4778.746094,622.337708 4787.223145,622.335510 
	C4871.852051,622.314148 4956.480957,622.313354 5041.109863,622.337341 
	C5049.306641,622.339661 5049.398926,622.434814 5049.429199,630.430298 
	C5049.492188,647.422424 5049.476562,664.415100 5049.436523,681.407410 
	C5049.416504,690.080688 5049.361816,690.160400 5040.820312,690.165771 
	C4995.507324,690.194153 4950.194336,690.179077 4904.881348,690.179138 
	C4887.889160,690.179138 4870.896484,690.132568 4853.904297,690.201416 
	C4846.489746,690.231445 4846.405762,690.338440 4846.368652,698.019165 
	C4846.302246,711.679138 4846.349121,725.339783 4846.349121,740.000122 
z"/>
<path fill="#F8F4F3" opacity="1.000000" stroke="none" 
	d="
M3978.000000,622.328247 
	C4047.975830,622.328247 4116.951660,622.328125 4185.927246,622.328491 
	C4188.259766,622.328491 4190.603516,622.483398 4192.921875,622.300720 
	C4196.810059,621.994141 4198.172852,623.665161 4198.149414,627.506958 
	C4198.031250,646.832764 4198.041504,666.159912 4198.136719,685.485901 
	C4198.153320,688.868896 4197.025879,690.431335 4193.531738,690.190796 
	C4191.210449,690.031006 4188.868652,690.172668 4186.536133,690.172729 
	C4126.890625,690.173462 4067.244873,690.173279 4007.599121,690.173584 
	C4005.266602,690.173584 4002.912598,690.380798 4000.606445,690.134888 
	C3996.404785,689.687073 3995.532715,691.918091 3995.586670,695.482544 
	C3995.697998,702.811646 3995.617676,710.143555 3995.617432,717.474304 
	C3995.617188,739.466553 3995.653076,761.458862 3995.599854,783.450989 
	C3995.578125,792.414001 3995.778564,791.678772 4003.727295,791.674377 
	C4053.043213,791.647034 4102.359375,791.660583 4151.675293,791.660828 
	C4154.007812,791.660828 4156.362793,791.871399 4158.667480,791.619873 
	C4163.316406,791.112671 4164.145020,793.465637 4164.108398,797.520386 
	C4163.949219,815.179382 4164.071289,832.840698 4164.027344,850.500977 
	C4164.007324,858.495056 4163.940430,858.586426 4155.867676,858.591858 
	C4109.550781,858.623108 4063.233643,858.606689 4016.916504,858.607788 
	C4011.251709,858.607910 4005.586426,858.672424 3999.922607,858.596436 
	C3997.039551,858.557800 3995.548584,859.714111 3995.636230,862.689880 
	C3995.675537,864.021240 3995.618408,865.355164 3995.618408,866.687927 
	C3995.617188,895.344482 3995.624512,924.001038 3995.614014,952.657593 
	C3995.611084,960.278748 3994.991211,960.181458 4003.299072,960.177002 
	C4064.277588,960.144531 4125.256348,960.159546 4186.234863,960.160034 
	C4188.567383,960.160095 4190.905273,960.272339 4193.230469,960.143921 
	C4196.474609,959.964722 4198.143555,961.029114 4198.126953,964.624084 
	C4198.036133,984.283325 4198.035156,1003.943481 4198.127930,1023.602722 
	C4198.145020,1027.235596 4196.395020,1028.200928 4193.205566,1028.015869 
	C4191.213379,1027.900024 4189.208496,1028.002808 4187.208984,1028.002930 
	C4104.238281,1028.003418 4021.267578,1028.003418 3938.296875,1028.003296 
	C3936.964111,1028.003296 3935.604004,1027.829346 3934.302979,1028.032227 
	C3928.851074,1028.882080 3927.170166,1026.284058 3927.733398,1021.265015 
	C3927.955078,1019.290588 3927.768555,1017.270508 3927.768555,1015.271179 
	C3927.768555,887.982727 3927.759277,760.694336 3927.784180,633.405884 
	C3927.786865,620.559692 3926.551758,622.440796 3939.014404,622.348877 
	C3951.675537,622.255493 3964.338135,622.328247 3978.000000,622.328247 
z"/>
<path fill="#F7F4F3" opacity="1.000000" stroke="none" 
	d="
M2702.265625,950.600342 
	C2714.563721,944.268127 2724.876221,936.428345 2733.484375,928.328552 
	C2749.615479,943.851562 2765.557861,959.192871 2781.932617,974.950378 
	C2772.869873,985.335632 2761.803955,993.757507 2750.100586,1001.211243 
	C2708.685059,1027.588135 2663.517822,1037.917847 2614.669189,1032.208984 
	C2567.012695,1026.639404 2525.626221,1007.980164 2492.108398,973.282532 
	C2465.248535,945.477295 2448.718262,912.126160 2441.203369,874.303284 
	C2431.823242,827.094238 2434.222168,780.653503 2453.230469,736.105347 
	C2480.682617,671.768127 2529.743164,633.334290 2598.168945,620.347290 
	C2652.434570,610.047791 2703.513916,619.068115 2750.177734,649.580505 
	C2761.630127,657.068848 2772.236084,665.609497 2781.020020,674.829651 
	C2765.183105,690.613342 2749.531982,706.211914 2733.605469,722.084961 
	C2719.574219,708.715088 2702.456787,697.172363 2682.274170,691.323547 
	C2632.135498,676.793579 2585.887451,683.454102 2546.093018,719.148987 
	C2526.108887,737.074768 2514.763916,760.388855 2509.321289,786.424377 
	C2501.616943,823.277039 2503.582275,859.505615 2520.273682,893.734436 
	C2540.164551,934.524597 2573.694580,957.209045 2618.189209,964.254211 
	C2647.441162,968.885925 2675.195801,964.104736 2702.265625,950.600342 
z"/>
<path fill="#F8F4F3" opacity="1.000000" stroke="none" 
	d="
M3099.415039,638.565186 
	C3149.635254,671.392700 3173.924561,717.509949 3171.598633,776.470825 
	C3168.811768,847.115601 3110.810303,907.356689 3040.824951,916.654419 
	C2965.296143,926.688416 2886.895020,876.140015 2872.691162,791.559387 
	C2857.924805,703.628845 2922.274170,627.375549 3002.973633,617.699280 
	C3037.346436,613.577759 3069.131592,620.715271 3099.415039,638.565186 
z"/>
<path fill="#F5F2F1" opacity="1.000000" stroke="none" 
	d="
M4216.382812,1447.988281 
	C4216.382812,1363.012329 4216.367188,1279.034668 4216.399414,1195.056885 
	C4216.404297,1182.545410 4215.024902,1184.074829 4227.703613,1183.994019 
	C4237.034180,1183.934448 4246.394043,1184.431763 4255.687012,1183.839844 
	C4263.083984,1183.368896 4267.607910,1185.637451 4272.017090,1192.018921 
	C4306.664062,1242.160034 4341.793457,1291.967773 4376.777832,1341.875610 
	C4386.527832,1355.784180 4396.273438,1369.696411 4406.066406,1383.574829 
	C4407.531738,1385.652222 4408.567383,1388.131714 4411.918945,1390.063354 
	C4412.094727,1386.085693 4412.377441,1382.641968 4412.378906,1379.198242 
	C4412.406250,1318.214478 4412.398926,1257.230591 4412.399414,1196.246826 
	C4412.399414,1193.914062 4412.539062,1191.572021 4412.376465,1189.250732 
	C4412.111328,1185.453247 4413.628418,1183.891479 4417.537109,1183.933960 
	C4430.532227,1184.074951 4443.530762,1184.076904 4456.525879,1183.934570 
	C4460.488281,1183.891113 4461.896973,1185.571533 4461.623535,1189.309814 
	C4461.478027,1191.298340 4461.603027,1193.306763 4461.603027,1195.306152 
	C4461.603516,1285.948853 4461.614746,1376.591431 4461.589844,1467.234131 
	C4461.586914,1479.073364 4462.940430,1477.965576 4450.987305,1478.010132 
	C4440.989746,1478.047241 4430.967285,1477.586304 4421.003906,1478.167358 
	C4414.229980,1478.562378 4410.230957,1476.182251 4406.378418,1470.620483 
	C4365.603516,1411.758789 4324.552246,1353.088257 4283.562988,1294.375122 
	C4278.318359,1286.862671 4272.991211,1279.408203 4265.821289,1272.322876 
	C4265.821289,1275.476685 4265.820801,1278.630615 4265.820801,1281.784424 
	C4265.820801,1343.101562 4265.821289,1404.418579 4265.820801,1465.735718 
	C4265.820801,1468.068481 4265.678223,1470.411011 4265.844727,1472.731567 
	C4266.115234,1476.501221 4264.672363,1478.109863 4260.732910,1478.065918 
	C4247.737793,1477.920898 4234.737793,1477.857178 4221.745605,1478.096558 
	C4217.012695,1478.183716 4216.248535,1475.912964 4216.335449,1471.979614 
	C4216.504883,1464.318604 4216.383789,1456.651123 4216.382812,1447.988281 
z"/>
<path fill="#F7F3F2" opacity="1.000000" stroke="none" 
	d="
M3805.889404,960.155396 
	C3812.139648,960.525269 3818.769287,957.945618 3822.347656,961.204468 
	C3826.438965,964.930237 3823.799561,971.873596 3823.898193,977.388489 
	C3824.148926,991.374939 3823.965332,1005.368896 3823.987305,1019.359802 
	C3824.001465,1028.547119 3824.525391,1028.010620 3815.310791,1028.009766 
	C3757.015137,1028.004395 3698.719482,1028.007446 3640.423828,1028.007446 
	C3631.096680,1028.007446 3621.764404,1027.825806 3612.444336,1028.082764 
	C3607.928223,1028.207153 3605.361816,1027.179565 3606.018066,1022.060608 
	C3606.270020,1020.094360 3606.056396,1018.068481 3606.056396,1016.069763 
	C3606.056396,888.818787 3606.040039,761.567871 3606.080811,634.316895 
	C3606.085205,620.448486 3604.387451,622.442688 3618.431885,622.348267 
	C3634.087646,622.243042 3649.744873,622.291565 3665.401367,622.337219 
	C3673.839600,622.361877 3673.889648,622.422241 3673.912598,631.178894 
	C3673.952393,646.502258 3673.923828,661.825684 3673.923828,677.149109 
	C3673.923828,767.757141 3673.900635,858.365112 3673.950195,948.973145 
	C3673.957031,961.667542 3672.221191,960.109863 3684.983154,960.131042 
	C3724.957275,960.197388 3764.931152,960.155396 3805.889404,960.155396 
z"/>
<path fill="#F7F3F2" opacity="1.000000" stroke="none" 
	d="
M3446.000000,960.155396 
	C3463.322510,960.156006 3479.652832,960.438782 3495.963867,960.007874 
	C3501.870117,959.851807 3502.376221,962.498413 3502.336182,967.141663 
	C3502.181396,985.128479 3502.323486,1003.117676 3502.246094,1021.105469 
	C3502.217041,1027.860596 3502.081299,1027.981201 3494.927734,1027.987427 
	C3449.624268,1028.026367 3404.320557,1028.007446 3359.017090,1028.007568 
	C3337.031494,1028.007568 3315.046143,1028.032471 3293.060547,1027.995117 
	C3284.440918,1027.980469 3284.367188,1027.916870 3284.364746,1019.339111 
	C3284.344727,945.054688 3284.352783,870.770264 3284.352783,796.485840 
	C3284.352783,742.521362 3284.352783,688.556885 3284.352783,634.592407 
	C3284.352783,632.260620 3284.484619,629.919922 3284.325928,627.599060 
	C3284.066895,623.808105 3285.588867,622.257690 3289.490723,622.280640 
	C3308.810791,622.394043 3328.131836,622.380615 3347.451904,622.287903 
	C3350.821045,622.271729 3352.377930,623.462830 3352.225830,626.898621 
	C3352.108154,629.558105 3352.215820,632.227295 3352.215820,634.892212 
	C3352.216553,738.823792 3352.216064,842.755371 3352.216064,946.686951 
	C3352.216064,949.018738 3352.486816,951.388611 3352.163818,953.674805 
	C3351.373291,959.272522 3354.165039,960.263428 3359.057129,960.235413 
	C3387.703857,960.071167 3416.352295,960.155151 3446.000000,960.155396 
z"/>
<path fill="#F4F1F0" opacity="1.000000" stroke="none" 
	d="
M4101.998535,1233.045654 
	C4069.001221,1233.045776 4037.003418,1233.026367 4005.005615,1233.058716 
	C3996.198486,1233.067749 3996.134277,1233.138672 3996.115234,1241.544312 
	C3996.073242,1260.209595 3996.104980,1278.875000 3996.100342,1297.540405 
	C3996.097900,1306.666016 3995.136475,1306.309570 4004.595703,1306.309082 
	C4038.926514,1306.307495 4073.257568,1306.307983 4107.588379,1306.309937 
	C4109.921387,1306.310059 4112.254395,1306.355225 4114.587402,1306.333740 
	C4117.082520,1306.310669 4118.195801,1307.653931 4118.198242,1310.001709 
	C4118.212891,1324.000488 4118.223633,1337.999390 4118.175781,1351.997925 
	C4118.167480,1354.459106 4116.621094,1355.448486 4114.268555,1355.421875 
	C4111.936035,1355.395386 4109.602051,1355.433716 4107.269043,1355.433838 
	C4072.938232,1355.435181 4038.607178,1355.413330 4004.276367,1355.451050 
	C3996.204102,1355.459961 3996.134766,1355.551880 3996.116455,1363.579224 
	C3996.072998,1382.577759 3996.147705,1401.576782 3996.081787,1420.575195 
	C3996.052490,1428.965576 3995.875244,1428.574829 4004.430908,1428.571777 
	C4046.761230,1428.556885 4089.091553,1428.565063 4131.421875,1428.565918 
	C4133.754883,1428.565918 4136.090332,1428.637207 4138.420898,1428.561890 
	C4141.148438,1428.473877 4143.025391,1429.366455 4143.028809,1432.400146 
	C4143.044434,1446.398071 4143.033203,1460.395996 4142.994141,1474.393921 
	C4142.987305,1476.764282 4141.727539,1478.012329 4139.291504,1477.998291 
	C4136.958496,1477.984863 4134.625488,1478.021729 4132.292480,1478.021851 
	C4073.963135,1478.023438 4015.634033,1478.022949 3957.304688,1478.022827 
	C3955.638184,1478.022827 3953.960449,1477.897705 3952.307129,1478.044556 
	C3948.537109,1478.379517 3946.665527,1476.918091 3946.938477,1472.968262 
	C3947.076172,1470.978149 3946.949951,1468.970337 3946.949951,1466.970459 
	C3946.948975,1376.310059 3946.942383,1285.649780 3946.957275,1194.989380 
	C3946.959473,1182.033691 3946.148438,1184.017578 3958.344727,1184.004517 
	C4016.007324,1183.942871 4073.669922,1183.976929 4131.332520,1183.977295 
	C4133.665527,1183.977295 4136.005859,1184.096680 4138.330566,1183.956299 
	C4141.751465,1183.749756 4143.098633,1185.317383 4143.084961,1188.643799 
	C4143.031250,1201.642578 4142.938477,1214.643799 4143.143066,1227.639648 
	C4143.216309,1232.297119 4140.958984,1233.147461 4136.995117,1233.096436 
	C4125.664551,1232.950439 4114.330566,1233.045532 4101.998535,1233.045654 
z"/>
<path fill="#F5F1F0" opacity="1.000000" stroke="none" 
	d="
M4968.000000,1183.980957 
	C4996.663574,1183.980957 5024.327637,1183.964355 5051.991211,1183.991211 
	C5060.101074,1183.999146 5061.024902,1182.187012 5060.973633,1192.388428 
	C5060.916992,1203.720215 5060.722168,1215.059692 5061.065918,1226.381470 
	C5061.228027,1231.718750 5059.293945,1233.217529 5054.166504,1233.133789 
	C5038.172363,1232.873047 5022.171387,1233.039429 5006.172852,1233.039673 
	C4977.842285,1233.040283 4949.512207,1233.001831 4921.181641,1233.068604 
	C4914.221680,1233.085083 4914.104004,1233.242432 4914.080566,1240.299805 
	C4914.015137,1259.964233 4914.016602,1279.629028 4914.079590,1299.293457 
	C4914.101562,1306.147827 4914.217773,1306.279663 4921.289551,1306.289795 
	C4955.619141,1306.339478 4989.949219,1306.312134 5024.278809,1306.312866 
	C5026.611816,1306.312866 5028.951660,1306.431641 5031.276367,1306.293579 
	C5034.522461,1306.100830 5036.236816,1307.165405 5036.211914,1310.749390 
	C5036.119629,1324.080688 5036.132812,1337.413086 5036.210449,1350.744629 
	C5036.229980,1354.120850 5034.840820,1355.610962 5031.461914,1355.439941 
	C5029.134766,1355.322266 5026.796387,1355.429321 5024.463379,1355.429443 
	C4991.466797,1355.430298 4958.470215,1355.378418 4925.473633,1355.454834 
	C4911.956055,1355.486206 4914.185059,1353.956665 4914.087402,1367.317139 
	C4913.960449,1384.647705 4914.036133,1401.979858 4914.064453,1419.311401 
	C4914.080078,1428.719727 4912.741211,1428.577759 4923.102539,1428.574707 
	C4963.765137,1428.563110 5004.427246,1428.570068 5045.089844,1428.570068 
	C5060.960938,1428.570068 5060.960938,1428.569946 5060.960938,1444.156128 
	C5060.960938,1451.822021 5060.974609,1459.487793 5060.958496,1467.153687 
	C5060.931641,1479.751709 5061.640625,1477.988525 5050.449707,1477.997314 
	C4992.122559,1478.043701 4933.795410,1478.019043 4875.468262,1478.019043 
	C4874.134766,1478.019043 4872.778809,1477.858398 4871.472168,1478.046631 
	C4866.055176,1478.827026 4864.269531,1476.244263 4864.815430,1471.211426 
	C4864.994141,1469.564331 4864.843262,1467.881714 4864.843262,1466.215210 
	C4864.842773,1375.891235 4864.833008,1285.567383 4864.853027,1195.243408 
	C4864.855957,1182.087524 4863.957520,1184.038818 4876.009277,1184.007202 
	C4906.339355,1183.927856 4936.669922,1183.980957 4968.000000,1183.980957 
z"/>
<path fill="#F6F2F1" opacity="1.000000" stroke="none" 
	d="
M3302.697266,1307.594727 
	C3316.024902,1308.581665 3327.896240,1311.930176 3339.036621,1317.305664 
	C3364.251221,1329.472656 3378.731934,1349.969482 3383.887451,1377.238281 
	C3386.392578,1390.487915 3386.305908,1403.774536 3383.102295,1416.908325 
	C3376.873535,1442.444580 3361.955078,1461.322632 3338.068359,1472.173828 
	C3302.218750,1488.459717 3267.236328,1485.550415 3234.669434,1463.627686 
	C3213.326416,1449.260376 3204.175049,1427.418335 3202.124023,1402.270874 
	C3201.790771,1398.183350 3202.806885,1396.166992 3207.436768,1396.245972 
	C3220.427490,1396.467529 3233.424805,1396.373901 3246.418701,1396.290527 
	C3249.585693,1396.270142 3251.252197,1397.254883 3251.711914,1400.671387 
	C3253.931396,1417.171753 3264.053711,1426.946411 3279.517334,1430.996704 
	C3296.577637,1435.465332 3312.784668,1433.346069 3326.050049,1420.619751 
	C3341.831543,1405.479370 3339.674561,1379.193359 3321.887451,1365.193604 
	C3312.362305,1357.696533 3301.364014,1354.399170 3289.407227,1354.053467 
	C3275.910156,1353.663208 3263.004883,1350.611328 3250.760010,1345.104980 
	C3211.863281,1327.614380 3197.302002,1292.730835 3203.051025,1254.350098 
	C3210.594482,1203.986694 3258.263184,1173.124634 3309.391357,1180.976807 
	C3344.454834,1186.361694 3369.450439,1205.037964 3380.710693,1239.751465 
	C3383.166748,1247.322021 3384.751709,1255.107300 3383.937500,1264.118042 
	C3368.899902,1264.118042 3353.995361,1264.105713 3339.090820,1264.129395 
	C3336.402100,1264.133667 3335.895264,1262.411743 3335.691895,1260.261475 
	C3332.410889,1225.578735 3284.516357,1221.818481 3264.781494,1238.150879 
	C3251.730957,1248.951050 3248.869141,1263.445557 3252.492920,1278.901123 
	C3256.253174,1294.939087 3268.454102,1302.819092 3283.916504,1305.808838 
	C3289.773193,1306.941162 3295.841064,1306.982422 3302.697266,1307.594727 
z"/>
<path fill="#F6F2F1" opacity="1.000000" stroke="none" 
	d="
M4699.534180,1180.155029 
	C4735.609863,1183.467041 4765.729980,1197.453979 4790.980957,1222.193481 
	C4790.504395,1225.328979 4788.092773,1226.700806 4786.346191,1228.475830 
	C4779.101562,1235.838867 4771.782715,1243.128906 4764.476562,1250.431274 
	C4757.814453,1257.090088 4757.734375,1257.168213 4750.690430,1251.308228 
	C4712.191895,1219.279175 4653.803711,1222.978271 4621.880371,1252.417969 
	C4610.073242,1263.306519 4601.683105,1276.357422 4596.731445,1291.457886 
	C4587.813965,1318.651489 4587.970703,1346.074585 4598.264648,1372.736450 
	C4611.694336,1407.522339 4637.901367,1427.005737 4674.660645,1431.901245 
	C4704.310547,1435.849854 4730.721680,1427.989868 4753.405762,1408.231812 
	C4754.608887,1407.183716 4755.898438,1406.234985 4756.817871,1405.502686 
	C4768.221680,1416.836060 4779.287598,1427.834229 4790.800293,1439.276001 
	C4790.551270,1441.483887 4788.077637,1442.818359 4786.213867,1444.461304 
	C4753.137695,1473.616821 4714.562500,1485.596436 4670.816895,1481.068970 
	C4646.909180,1478.594604 4624.626465,1471.151855 4604.626953,1457.721558 
	C4567.418945,1432.735229 4547.758789,1397.044434 4542.072754,1353.173462 
	C4538.371094,1324.610962 4540.673828,1296.554077 4551.659668,1269.744507 
	C4574.371582,1214.321533 4616.787598,1185.744385 4675.616211,1180.269409 
	C4683.213867,1179.562378 4690.931152,1180.133057 4699.534180,1180.155029 
z"/>
<path fill="#F7F3F2" opacity="1.000000" stroke="none" 
	d="
M3460.433105,1381.533203 
	C3450.016357,1343.433105 3449.482178,1306.193115 3464.036621,1269.966431 
	C3486.192627,1214.821411 3528.397461,1185.785522 3586.819824,1180.404175 
	C3627.825684,1176.627075 3664.526855,1188.304321 3695.975098,1215.363647 
	C3697.990479,1217.098022 3699.953857,1218.898193 3701.855225,1220.755981 
	C3702.524170,1221.409424 3702.934326,1222.327759 3704.066650,1224.036621 
	C3694.141357,1233.699219 3683.978516,1243.305542 3674.189941,1253.279175 
	C3670.788086,1256.745239 3668.815674,1256.380371 3665.296387,1253.323120 
	C3648.155029,1238.433716 3628.185059,1230.183472 3605.393799,1229.010376 
	C3558.627441,1226.603394 3518.850342,1251.323486 3506.628174,1300.094727 
	C3500.683105,1323.817749 3501.370361,1347.818237 3510.009766,1370.924683 
	C3523.677490,1407.479004 3550.606689,1427.621582 3589.125488,1432.118042 
	C3617.721436,1435.456055 3643.218994,1427.713257 3665.041504,1408.770630 
	C3668.331543,1405.914795 3670.394287,1404.882690 3673.994141,1408.520386 
	C3683.828369,1418.458008 3694.091797,1427.971069 3705.066406,1438.497070 
	C3667.277588,1474.506226 3623.851318,1488.294189 3574.204102,1479.690308 
	C3517.501221,1469.863647 3479.376221,1437.075073 3460.433105,1381.533203 
z"/>
<path fill="#F5F1F0" opacity="1.000000" stroke="none" 
	d="
M2802.047119,1183.981689 
	C2859.952393,1183.981689 2916.867188,1183.981689 2974.682861,1183.981689 
	C2974.682861,1199.561279 2974.686279,1214.496948 2974.679443,1229.432739 
	C2974.678467,1231.888672 2973.361084,1233.007690 2970.963135,1233.005005 
	C2968.631836,1233.002441 2966.300537,1233.036987 2963.969238,1233.037109 
	C2922.668701,1233.039307 2881.367920,1233.038574 2840.067383,1233.038818 
	C2838.069092,1233.038818 2836.050537,1233.224854 2834.076172,1233.007690 
	C2829.269043,1232.478638 2827.770752,1234.441895 2827.857910,1239.260620 
	C2828.134766,1254.576782 2827.869141,1269.901978 2828.001953,1285.222046 
	C2828.059326,1291.828491 2825.230713,1300.354248 2829.068359,1304.546143 
	C2833.415039,1309.294434 2842.220703,1306.193115 2849.059326,1306.233398 
	C2880.033691,1306.415771 2911.009521,1306.289429 2941.984863,1306.329590 
	C2949.980469,1306.339966 2950.034912,1306.431763 2950.079590,1314.562378 
	C2950.136475,1324.887207 2950.096436,1335.212524 2950.092529,1345.537720 
	C2950.088379,1355.863525 2951.024902,1355.443115 2940.573730,1355.435059 
	C2916.259766,1355.416260 2891.945557,1355.429077 2867.631592,1355.429077 
	C2856.973389,1355.429077 2846.314941,1355.376709 2835.656982,1355.447266 
	C2828.094727,1355.497314 2827.987549,1355.571289 2827.978271,1362.993652 
	C2827.936279,1396.966675 2827.960205,1430.939819 2827.959717,1464.912842 
	C2827.959229,1478.016846 2827.958008,1478.017456 2814.750000,1478.018066 
	C2804.758057,1478.018555 2794.759277,1477.802124 2784.776855,1478.108521 
	C2779.880615,1478.258911 2778.083984,1476.451538 2778.590088,1471.736572 
	C2778.802246,1469.760986 2778.623291,1467.743530 2778.623291,1465.745117 
	C2778.623047,1375.816528 2778.602295,1285.887817 2778.645020,1195.959229 
	C2778.651611,1182.107788 2777.027344,1184.177490 2791.064697,1183.988403 
	C2794.394775,1183.943481 2797.726074,1183.981689 2802.047119,1183.981689 
z"/>
<path fill="#F7F3F2" opacity="1.000000" stroke="none" 
	d="
M2695.605225,1270.612915 
	C2699.546387,1297.052979 2695.519287,1321.180786 2682.366699,1343.629639 
	C2659.309326,1382.983032 2614.279785,1404.327271 2570.326904,1396.712891 
	C2524.539307,1388.780518 2489.188232,1354.149292 2480.571045,1308.784546 
	C2468.050293,1242.867188 2519.079590,1180.660767 2586.314453,1179.880249 
	C2638.694580,1179.271973 2683.078613,1214.575073 2694.462158,1265.891235 
	C2694.750488,1267.190918 2695.133301,1268.469849 2695.605225,1270.612915 
z"/>
<path fill="#F6F2F1" opacity="1.000000" stroke="none" 
	d="
M3841.688477,1419.974854 
	C3841.704834,1432.965210 3841.704834,1432.964478 3853.906494,1432.970093 
	C3859.572266,1432.972656 3865.244141,1433.145630 3870.901367,1432.926758 
	C3874.900391,1432.772095 3876.094238,1434.526245 3876.050537,1438.267456 
	C3875.917725,1449.597290 3875.866943,1460.932007 3876.073730,1472.259644 
	C3876.150879,1476.479736 3874.901611,1478.272827 3870.430176,1478.085938 
	C3863.443604,1477.794189 3856.435547,1478.012329 3849.436768,1478.012451 
	C3822.108154,1478.012939 3794.779541,1478.025513 3767.450928,1478.006226 
	C3757.004395,1477.998901 3758.009033,1478.951904 3757.973145,1468.185181 
	C3757.939941,1458.187012 3758.068604,1448.187134 3757.917725,1438.191040 
	C3757.859863,1434.368286 3759.231201,1432.832275 3763.142822,1432.923828 
	C3771.136719,1433.110840 3779.141113,1432.850098 3787.136230,1433.010742 
	C3790.868408,1433.085693 3792.835449,1431.965576 3792.330811,1427.919312 
	C3792.166992,1426.606812 3792.311279,1425.256348 3792.311279,1423.923218 
	C3792.311768,1361.933838 3792.320312,1299.944580 3792.285156,1237.955200 
	C3792.283447,1235.014771 3792.902100,1231.955322 3791.029541,1228.504639 
	C3781.020264,1228.504639 3770.757568,1228.504639 3759.812744,1228.504639 
	C3759.812744,1214.550659 3759.838867,1201.262085 3759.793701,1187.973999 
	C3759.783447,1184.967407 3761.237549,1183.831665 3764.081055,1183.987915 
	C3765.409912,1184.061035 3766.746582,1183.988159 3768.079590,1183.988159 
	C3800.740723,1183.987427 3833.401611,1183.968140 3866.062744,1184.001465 
	C3874.131836,1184.009644 3874.194580,1184.088379 3874.232178,1192.072144 
	C3874.288818,1204.010986 3874.246826,1215.950439 3874.246826,1228.549805 
	C3863.192383,1228.549805 3852.937256,1228.549805 3841.688477,1228.549805 
	C3841.688477,1292.474121 3841.688477,1355.725586 3841.688477,1419.974854 
z"/>
<path fill="#F5F2F1" opacity="1.000000" stroke="none" 
	d="
M2885.883789,992.005615 
	C2885.883789,983.342224 2885.816406,975.675232 2885.904053,968.010071 
	C2885.986572,960.774597 2886.057861,960.769226 2892.867188,960.578186 
	C2894.199219,960.540833 2895.533447,960.571899 2896.866699,960.571899 
	C2978.861816,960.571838 3060.856934,960.566345 3142.852051,960.577881 
	C3154.987549,960.579590 3153.650635,959.654358 3153.682129,971.188538 
	C3153.725830,987.187500 3153.673340,1003.186707 3153.701172,1019.185669 
	C3153.716797,1028.232178 3154.336914,1028.040405 3145.149902,1028.028564 
	C3120.151367,1027.996704 3095.152832,1028.017578 3070.154297,1028.017578 
	C3012.824463,1028.017578 2955.494385,1028.017578 2898.164551,1028.017578 
	C2896.164795,1028.017456 2894.143311,1027.827637 2892.169434,1028.053467 
	C2887.519775,1028.585571 2885.609863,1026.985107 2885.786133,1021.997559 
	C2886.127441,1012.343567 2885.884766,1002.668945 2885.883789,992.005615 
z"/>
<path fill="#F8F4F3" opacity="1.000000" stroke="none" 
	d="
M2596.000000,1478.003418 
	C2562.667969,1478.003296 2530.335938,1478.024658 2498.003906,1477.987793 
	C2489.998535,1477.978638 2489.941895,1477.891968 2489.901123,1469.825928 
	C2489.845947,1458.826782 2489.835693,1447.826538 2489.906006,1436.827515 
	C2489.952637,1429.524292 2490.030518,1429.432129 2497.710449,1429.411377 
	C2517.709717,1429.357544 2537.708740,1429.392700 2557.708008,1429.392700 
	C2596.039795,1429.392700 2634.371582,1429.392334 2672.703369,1429.394165 
	C2675.036377,1429.394287 2677.370605,1429.460938 2679.702393,1429.409180 
	C2682.573242,1429.345459 2683.922119,1430.550781 2683.906250,1433.553833 
	C2683.836670,1446.886230 2683.789551,1460.219849 2683.912354,1473.551514 
	C2683.962891,1479.033325 2680.127930,1477.969238 2676.996826,1477.977051 
	C2656.997559,1478.026855 2636.998535,1478.003174 2616.999268,1478.003540 
	C2610.332764,1478.003540 2603.666504,1478.003418 2596.000000,1478.003418 
z"/>
<path fill="#010101" opacity="1.000000" stroke="none" 
	d="
M1074.003906,1363.896484 
	C1056.050049,1390.213013 1030.677368,1404.667969 1001.821289,1413.930420 
	C972.697632,1423.279053 942.659912,1426.538696 912.213196,1426.575195 
	C856.579163,1426.641846 800.945068,1426.598389 745.310974,1426.598877 
	C743.645447,1426.598877 741.979614,1426.551514 740.314392,1426.569336 
	C737.331970,1426.601440 736.201294,1425.033325 736.326538,1422.194458 
	C736.414551,1420.199707 736.334717,1418.197510 736.334717,1416.198730 
	C736.334290,1337.911255 736.320862,1259.623779 736.348145,1181.336304 
	C736.352539,1168.871338 735.076782,1170.355835 747.718689,1170.346924 
	C804.685303,1170.306641 861.653931,1170.047729 918.617798,1170.443115 
	C949.399292,1170.656616 979.626526,1175.183228 1008.747314,1185.751221 
	C1021.963867,1190.547607 1034.419189,1196.850220 1045.851807,1204.987061 
	C1074.616211,1225.459229 1089.282349,1253.829102 1091.646973,1288.722168 
	C1093.445557,1315.264648 1088.921265,1340.460815 1074.003906,1363.896484 
z"/>
<path fill="#010101" opacity="1.000000" stroke="none" 
	d="
M866.000000,741.830261 
	C883.330505,741.831421 899.665039,741.599792 915.990540,741.884949 
	C944.854004,742.389099 972.947937,747.254395 999.809021,758.114258 
	C1012.198547,763.123291 1023.804382,769.607056 1034.360107,777.906128 
	C1058.068115,796.545654 1071.426514,821.092041 1075.768555,850.681946 
	C1078.454102,868.983887 1078.076416,887.200256 1072.987305,905.147461 
	C1064.709717,934.339111 1046.079834,955.223328 1020.389893,970.282471 
	C992.602173,986.571350 962.131592,994.371521 930.413086,997.973877 
	C918.150513,999.366516 905.844910,999.752991 893.495239,999.721375 
	C845.170654,999.597717 796.845581,999.671021 748.520691,999.670654 
	C746.187744,999.670654 743.845459,999.532349 741.524048,999.695007 
	C737.660767,999.965759 736.021179,998.297607 736.311523,994.454895 
	C736.461731,992.466736 736.334167,990.457581 736.334167,988.457947 
	C736.333923,910.138306 736.333862,831.818665 736.333862,753.499023 
	C736.333862,752.499207 736.325806,751.499268 736.335266,750.499512 
	C736.416382,741.921448 736.417297,741.848694 745.020996,741.842651 
	C785.013977,741.814575 825.007019,741.830261 866.000000,741.830261 
z"/>
<path fill="#000000" opacity="1.000000" stroke="none" 
	d="
M1557.747681,827.999878 
	C1557.747681,802.008850 1557.737671,777.017822 1557.752808,752.026794 
	C1557.758545,742.715271 1556.870117,743.410583 1566.306641,743.409485 
	C1635.281860,743.401489 1704.257202,743.404724 1773.232422,743.404602 
	C1867.198608,743.404480 1961.164917,743.404541 2055.131104,743.404541 
	C2057.130371,743.404541 2059.129883,743.386047 2061.128906,743.407959 
	C2069.673340,743.501709 2069.739990,743.506042 2069.741699,752.139587 
	C2069.759277,832.444092 2069.752686,912.748596 2069.752197,993.053101 
	C2069.751709,1055.364014 2071.071045,1117.710815 2069.383545,1179.976074 
	C2067.642334,1244.218506 2049.505859,1304.028931 2010.987915,1356.384521 
	C1979.422729,1399.289551 1935.569336,1423.076050 1884.174438,1433.240967 
	C1835.608276,1442.846191 1786.793335,1442.741821 1738.335327,1432.029541 
	C1675.238892,1418.080933 1628.014282,1382.596558 1596.582031,1326.056152 
	C1576.405884,1289.763184 1565.206055,1250.703979 1559.700073,1209.757446 
	C1558.049194,1197.480469 1557.734619,1185.207275 1557.736694,1172.874634 
	C1557.755371,1058.249756 1557.747681,943.624817 1557.747681,827.999878 
z"/>
<path fill="#020202" opacity="1.000000" stroke="none" 
	d="
M2963.173340,707.154053 
	C2993.785645,678.408508 3037.207031,677.723145 3066.977783,697.241028 
	C3098.684326,718.028137 3111.629639,756.610168 3101.129395,791.863647 
	C3090.596924,827.224182 3057.824463,851.045715 3020.649658,850.431946 
	C2986.111816,849.861755 2960.545654,833.711914 2946.073242,802.543945 
	C2931.663574,771.512207 2935.640625,741.633362 2956.660645,714.346252 
	C2958.483643,711.979736 2960.653564,709.880371 2963.173340,707.154053 
z"/>
<path fill="#030303" opacity="1.000000" stroke="none" 
	d="
M2527.871094,1291.698242 
	C2525.961914,1262.444946 2547.590576,1234.091919 2579.098389,1229.182495 
	C2612.146484,1224.033203 2644.753418,1248.486572 2648.002441,1281.774292 
	C2651.437012,1316.962158 2627.614502,1346.649536 2592.455566,1349.296631 
	C2555.518555,1352.077759 2529.231934,1323.414917 2527.871094,1291.698242 
z"/>
</svg>